<svg version="1.1" id="Layer_1" xmlns="http://www.w3.org/2000/svg" xmlns:xlink="http://www.w3.org/1999/xlink" x="0px" y="0px"
	 width="100%" viewBox="0 0 800 432" enable-background="new 0 0 800 432" xml:space="preserve">
<path fill="#000000" opacity="1.000000" stroke="none" 
	d="
M356.207153,255.439667 
	C350.977203,238.349075 359.129578,222.203979 374.661652,218.214981 
	C382.978027,216.079117 389.794647,217.842072 400.712097,224.973526 
	C402.431488,224.022293 401.713196,222.344116 401.732788,221.001083 
	C401.820251,215.011230 401.820770,209.018860 401.752228,203.028534 
	C401.720551,200.260529 402.504028,198.631073 405.691284,198.660553 
	C408.618317,198.687637 409.359772,200.132477 409.352051,202.714249 
	C409.306671,217.858337 409.600616,233.009186 409.236511,248.144684 
	C408.952850,259.936340 401.099213,268.699493 389.097717,271.796906 
	C376.792145,274.972748 365.279724,270.466370 358.465881,259.762604 
	C357.665924,258.505920 357.061523,257.124725 356.207153,255.439667 
M385.778259,265.336578 
	C398.483704,261.427460 404.378601,252.013504 401.550568,239.603531 
	C399.604950,231.065704 393.829071,226.363480 385.368835,224.699905 
	C378.337189,223.317245 370.273956,226.620514 366.199799,232.606644 
	C361.380341,239.687683 360.696014,247.194275 364.620361,254.751236 
	C368.846191,262.888794 376.246002,265.628296 385.778259,265.336578 
z"/>
<path fill="#000000" opacity="1.000000" stroke="none" 
	d="
M461.885864,272.391052 
	C448.164520,268.749725 439.827454,258.941376 439.654358,246.662430 
	C439.452881,232.371094 446.551086,222.254608 459.463745,218.429810 
	C475.761292,213.602371 492.473236,224.878281 494.422577,241.760559 
	C495.420685,250.404877 494.861267,259.041260 495.059998,267.679657 
	C495.128296,270.649475 495.112122,273.335266 490.798157,273.351044 
	C486.361084,273.367249 486.663666,270.554108 486.679474,267.650482 
	C486.684814,266.671173 486.598511,265.691406 486.517426,263.904541 
	C479.467987,270.796753 471.555573,273.721680 461.885864,272.391052 
M457.869904,227.186966 
	C455.610321,228.347855 453.674194,229.937820 452.156738,231.947968 
	C447.305176,238.374863 445.664886,245.327362 448.973541,253.006027 
	C451.712189,259.361908 456.100830,263.987549 463.191193,264.875946 
	C472.590729,266.053680 479.281342,261.867981 483.906158,252.566208 
	C487.191925,245.957733 485.904205,236.421432 481.005188,231.082458 
	C475.410217,224.985092 467.328827,223.448166 457.869904,227.186966 
z"/>
<path fill="#000000" opacity="1.000000" stroke="none" 
	d="
M670.310059,249.627625 
	C667.095642,263.825409 657.316467,272.343384 643.841553,273.117310 
	C632.217712,273.784882 620.664856,265.878784 616.934387,253.927551 
	C613.484619,242.875687 615.749573,232.595032 624.270935,224.629959 
	C633.008301,216.462906 643.677124,215.199600 654.450989,219.817902 
	C665.054321,224.363129 670.288940,233.044525 670.341064,244.686264 
	C670.347778,246.183334 670.332642,247.680481 670.310059,249.627625 
M623.354248,244.674210 
	C623.362549,245.507202 623.302856,246.347336 623.389648,247.172089 
	C624.523865,257.953522 633.867004,266.319183 643.989441,265.638458 
	C655.252808,264.881042 663.217468,255.583817 662.674500,243.827271 
	C662.172424,232.957855 653.171631,224.792145 642.089661,225.152283 
	C632.180481,225.474304 625.620300,232.027328 623.354248,244.674210 
z"/>
<path fill="#000000" opacity="1.000000" stroke="none" 
	d="
M536.414429,222.181412 
	C542.744812,218.246902 549.426208,218.002884 556.057068,218.994186 
	C565.575073,220.417099 571.269043,227.066360 572.343567,236.593964 
	C573.523315,247.055786 572.975708,257.536072 573.071777,268.010590 
	C573.096130,270.666992 572.800110,273.051819 569.209473,273.154572 
	C565.321228,273.265900 565.000549,270.758636 564.978271,267.877472 
	C564.903442,258.223846 564.967407,248.565933 564.688171,238.918060 
	C564.447693,230.607346 559.878723,226.769806 550.460083,226.432938 
	C542.365967,226.143463 536.340759,231.049042 535.186523,238.233063 
	C533.615173,248.014099 534.599487,257.826233 534.292664,267.618500 
	C534.206726,270.360870 534.469788,273.122528 530.445129,273.179199 
	C526.315796,273.237335 526.640991,270.403687 526.645142,267.692719 
	C526.658875,258.713196 526.489502,249.728973 526.729858,240.755630 
	C526.930786,233.253754 529.609680,226.793015 536.414429,222.181412 
z"/>
<path fill="#000000" opacity="1.000000" stroke="none" 
	d="
M295.649231,265.892395 
	C295.656097,257.419800 295.472595,249.427734 295.723083,241.449295 
	C296.001129,232.594147 299.123932,224.913864 307.647186,221.079819 
	C316.475891,217.108398 325.500031,217.314133 333.853790,222.751083 
	C338.476837,225.759933 340.593994,230.543015 341.188995,235.834686 
	C342.418121,246.765640 342.063965,257.757843 342.016541,268.732971 
	C342.004730,271.460510 340.988007,273.156433 337.907013,273.128235 
	C334.670197,273.098602 334.097137,271.051483 334.071045,268.485535 
	C333.971191,258.671051 334.059723,248.850632 333.736053,239.043701 
	C333.452118,230.439087 329.177368,226.780731 319.739532,226.398056 
	C311.346069,226.057755 305.351257,230.834564 304.136047,238.379364 
	C302.641693,247.657410 303.676788,256.975433 303.261414,266.263428 
	C303.132111,269.154114 304.497162,273.188202 299.244598,273.056976 
	C294.273834,272.932800 296.073730,269.026642 295.649231,265.892395 
z"/>
<path fill="#000000" opacity="1.000000" stroke="none" 
	d="
M597.613647,199.433029 
	C600.552490,198.520355 602.967529,199.208023 605.309875,200.084717 
	C606.908752,200.683167 608.400696,201.517059 607.575256,203.756104 
	C606.853333,205.714447 606.184631,207.302322 603.447632,207.079132 
	C595.230408,206.409042 589.643982,213.117645 591.314575,221.305099 
	C592.086243,225.087036 595.086304,223.637527 597.316162,224.018753 
	C599.568359,224.403809 602.645752,223.099915 603.240479,226.868973 
	C603.772705,230.241699 602.020203,231.290436 598.927307,231.199005 
	C590.742188,230.957108 591.234741,230.910217 591.222534,239.230026 
	C591.208435,248.875000 591.200989,258.520050 591.221497,268.164978 
	C591.227295,270.878601 590.953796,273.148712 587.344666,273.200378 
	C583.951599,273.248993 583.001709,271.379730 583.044250,268.486420 
	C583.305542,250.708374 582.106628,232.908035 583.698792,215.153061 
	C584.455078,206.718430 589.742737,200.787323 597.613647,199.433029 
z"/>
<path fill="#000000" opacity="1.000000" stroke="none" 
	d="
M232.765121,207.962280 
	C234.007919,208.168777 234.816345,208.359192 235.634369,208.489258 
	C245.540161,210.064224 246.432144,212.250122 240.523438,220.494049 
	C233.924881,229.700485 221.477097,233.538986 210.846939,229.905182 
	C206.751236,228.505127 206.215057,226.279724 208.168396,222.802963 
	C213.473785,213.359726 221.453339,208.291138 232.765121,207.962280 
z"/>
<path fill="#000000" opacity="1.000000" stroke="none" 
	d="
M159.881714,231.259277 
	C148.334808,230.944397 140.186203,226.046097 135.126022,215.979523 
	C133.248505,212.244461 134.503967,210.662567 138.039963,209.394714 
	C150.003433,205.105118 165.171677,211.637894 170.316498,223.284073 
	C171.805756,226.655258 171.157104,228.736893 167.608582,229.683136 
	C165.212769,230.321960 162.755508,230.730316 159.881714,231.259277 
z"/>
<path fill="#000000" opacity="1.000000" stroke="none" 
	d="
M182.153809,253.416901 
	C188.565002,266.643097 184.038773,281.469879 171.850769,288.187469 
	C167.005646,290.857971 166.122482,290.530304 164.340256,285.400848 
	C160.286331,273.733124 165.270691,260.299896 175.922455,254.439346 
	C177.736038,253.441528 179.567093,251.889648 182.153809,253.416901 
z"/>
<path fill="#000000" opacity="1.000000" stroke="none" 
	d="
M215.317703,275.211914 
	C215.611801,280.755432 214.750443,285.544342 211.773834,289.755371 
	C197.488602,286.864868 188.545624,269.236633 195.232208,254.981720 
	C196.490204,252.299850 198.388016,252.501877 200.603088,253.598923 
	C209.397797,257.954620 213.946228,265.247925 215.317703,275.211914 
z"/>
<path fill="#000000" opacity="1.000000" stroke="none" 
	d="
M179.629547,216.245972 
	C166.088303,209.692322 160.090424,197.064484 163.916565,184.207764 
	C165.097046,180.241043 166.825302,179.257233 170.712158,181.305481 
	C182.200027,187.359177 187.791611,199.981125 184.100800,212.422882 
	C183.507034,214.424454 183.113647,216.884613 179.629547,216.245972 
z"/>
<path fill="#000000" opacity="1.000000" stroke="none" 
	d="
M214.398621,198.891144 
	C212.079681,206.530823 207.386429,211.675064 200.844971,215.297592 
	C197.753922,217.009369 195.704666,216.715057 194.335480,213.020691 
	C189.862976,200.952835 196.976334,185.085297 208.885696,180.651276 
	C211.483749,179.683975 213.013702,180.203400 213.913925,182.788284 
	C215.716705,187.964783 215.953888,193.190979 214.398621,198.891144 
z"/>
<path fill="#000000" opacity="1.000000" stroke="none" 
	d="
M209.533615,248.349777 
	C206.492905,242.339478 206.968430,241.233887 212.883026,239.820023 
	C224.624283,237.013336 237.293655,242.671631 242.604813,252.888168 
	C244.431564,256.402100 243.831619,258.183105 239.921219,259.452087 
	C228.714813,263.088715 217.308609,259.140778 209.533615,248.349777 
z"/>
<path fill="#000000" opacity="1.000000" stroke="none" 
	d="
M166.498978,251.424652 
	C158.467636,260.258942 148.896057,262.157013 138.017014,259.311676 
	C134.551819,258.405365 133.992538,256.622894 135.484100,253.416229 
	C140.858124,241.862747 156.496689,235.788467 168.227921,240.758392 
	C170.746109,241.825256 171.716965,243.203751 170.225754,245.688583 
	C169.114349,247.540527 167.907242,249.335022 166.498978,251.424652 
z"/>
<path fill="#000000" opacity="1.000000" stroke="none" 
	d="
M422.685181,220.176208 
	C427.650116,218.897705 429.348511,220.676605 429.278717,225.392685 
	C429.069550,239.528519 429.171082,253.669052 429.164429,267.807739 
	C429.163116,270.593719 429.244446,273.237457 425.186066,273.178528 
	C420.989838,273.117615 421.534851,270.331207 421.541321,267.629425 
	C421.574310,253.823532 421.546844,240.017502 421.579865,226.211609 
	C421.584564,224.250183 421.134735,222.203705 422.685181,220.176208 
z"/>
<path fill="#000000" opacity="1.000000" stroke="none" 
	d="
M513.338745,240.000427 
	C513.336670,249.826950 513.325195,259.153564 513.338135,268.480194 
	C513.341553,270.948151 513.323608,273.173279 509.821136,273.184906 
	C506.310089,273.196533 505.728699,271.192688 505.734711,268.341583 
	C505.765625,253.685577 505.754333,239.029419 505.727692,224.373367 
	C505.723053,221.819275 505.989899,219.782578 509.366272,219.705704 
	C512.971863,219.623596 513.398132,221.684265 513.354553,224.511673 
	C513.277527,229.506866 513.336487,234.504150 513.338745,240.000427 
z"/>
<path fill="#000000" opacity="1.000000" stroke="none" 
	d="
M280.799530,220.113586 
	C282.684357,221.579071 282.325958,223.340164 282.329803,224.954910 
	C282.363770,239.261154 282.333649,253.567566 282.372498,267.873810 
	C282.380249,270.734741 282.352264,273.298218 278.353333,273.159454 
	C274.606750,273.029419 274.764435,270.469086 274.765015,267.902313 
	C274.768402,253.595993 274.850586,239.288940 274.721771,224.983810 
	C274.684296,220.821442 276.183197,219.044724 280.799530,220.113586 
z"/>
<path fill="#000000" opacity="1.000000" stroke="none" 
	d="
M425.820557,210.198349 
	C420.885559,209.157455 418.630676,206.393250 419.645569,202.847504 
	C420.712097,199.121521 423.532959,198.118591 427.000702,198.958054 
	C429.259521,199.504837 430.784729,201.293610 430.966553,203.543610 
	C431.236908,206.889343 429.424591,209.114166 425.820557,210.198349 
z"/>
<path fill="#000000" opacity="1.000000" stroke="none" 
	d="
M505.448334,200.371796 
	C510.540863,197.764130 514.367188,198.865036 515.177429,202.892181 
	C515.753113,205.753250 514.836243,208.141708 512.181641,209.573669 
	C509.900696,210.804077 507.662231,210.502701 505.846954,208.652664 
	C503.473938,206.234253 503.022736,203.533798 505.448334,200.371796 
z"/>
<path fill="#000000" opacity="1.000000" stroke="none" 
	d="
M280.513000,209.849731 
	C277.083344,210.757782 275.050354,209.430283 273.594086,206.847641 
	C272.381348,204.696838 272.724426,202.696503 274.177338,200.852753 
	C275.647003,198.987717 277.663757,198.381927 279.939514,198.831604 
	C282.045471,199.247711 283.578461,200.519135 284.089355,202.627487 
	C284.844391,205.743332 283.702179,208.126022 280.513000,209.849731 
z"/>
</svg>